<mxfile host="app.diagrams.net" modified="2022-09-14T04:48:21.200Z" agent="5.0 (Macintosh; Intel Mac OS X 10_15_7) AppleWebKit/605.1.15 (KHTML, like Gecko) Version/15.1 Safari/605.1.15" etag="-ykYh3mXJJHR829PSrBN" version="20.3.0" type="github">
  <diagram id="nQLH9h6oY7RkvCudUBmM" name="Page-1">
    <mxGraphModel dx="702" dy="479" grid="1" gridSize="10" guides="1" tooltips="1" connect="1" arrows="1" fold="1" page="1" pageScale="1" pageWidth="850" pageHeight="1100" math="0" shadow="0">
      <root>
        <mxCell id="0" />
        <mxCell id="1" parent="0" />
        <mxCell id="ayVskooS4_0W4iJmjJSM-3" value="" style="edgeStyle=orthogonalEdgeStyle;rounded=0;orthogonalLoop=1;jettySize=auto;html=1;" edge="1" parent="1" source="ayVskooS4_0W4iJmjJSM-1" target="ayVskooS4_0W4iJmjJSM-2">
          <mxGeometry relative="1" as="geometry" />
        </mxCell>
        <mxCell id="ayVskooS4_0W4iJmjJSM-1" value="Start" style="rounded=0;whiteSpace=wrap;html=1;" vertex="1" parent="1">
          <mxGeometry x="260" y="20" width="120" height="60" as="geometry" />
        </mxCell>
        <mxCell id="ayVskooS4_0W4iJmjJSM-8" value="" style="edgeStyle=orthogonalEdgeStyle;rounded=0;orthogonalLoop=1;jettySize=auto;html=1;" edge="1" parent="1" source="ayVskooS4_0W4iJmjJSM-2" target="ayVskooS4_0W4iJmjJSM-7">
          <mxGeometry relative="1" as="geometry" />
        </mxCell>
        <mxCell id="ayVskooS4_0W4iJmjJSM-2" value="Set number &amp;nbsp;= 6" style="rounded=0;whiteSpace=wrap;html=1;" vertex="1" parent="1">
          <mxGeometry x="260" y="160" width="120" height="60" as="geometry" />
        </mxCell>
        <mxCell id="ayVskooS4_0W4iJmjJSM-7" value="Input &amp;nbsp;guess&lt;br&gt;&amp;nbsp;number" style="shape=parallelogram;perimeter=parallelogramPerimeter;whiteSpace=wrap;html=1;fixedSize=1;" vertex="1" parent="1">
          <mxGeometry x="180" y="290" width="120" height="60" as="geometry" />
        </mxCell>
        <mxCell id="ayVskooS4_0W4iJmjJSM-14" value="" style="edgeStyle=orthogonalEdgeStyle;rounded=0;orthogonalLoop=1;jettySize=auto;html=1;" edge="1" parent="1" source="ayVskooS4_0W4iJmjJSM-11" target="ayVskooS4_0W4iJmjJSM-13">
          <mxGeometry relative="1" as="geometry" />
        </mxCell>
        <mxCell id="ayVskooS4_0W4iJmjJSM-15" value="" style="edgeStyle=orthogonalEdgeStyle;rounded=0;orthogonalLoop=1;jettySize=auto;html=1;" edge="1" parent="1" source="ayVskooS4_0W4iJmjJSM-11" target="ayVskooS4_0W4iJmjJSM-13">
          <mxGeometry relative="1" as="geometry" />
        </mxCell>
        <mxCell id="ayVskooS4_0W4iJmjJSM-19" value="" style="edgeStyle=orthogonalEdgeStyle;rounded=0;orthogonalLoop=1;jettySize=auto;html=1;" edge="1" parent="1" source="ayVskooS4_0W4iJmjJSM-11" target="ayVskooS4_0W4iJmjJSM-18">
          <mxGeometry relative="1" as="geometry" />
        </mxCell>
        <mxCell id="ayVskooS4_0W4iJmjJSM-11" value="Is it more. than 10" style="rhombus;whiteSpace=wrap;html=1;" vertex="1" parent="1">
          <mxGeometry x="320" y="365" width="80" height="80" as="geometry" />
        </mxCell>
        <mxCell id="ayVskooS4_0W4iJmjJSM-12" value="" style="edgeStyle=orthogonalEdgeStyle;rounded=0;orthogonalLoop=1;jettySize=auto;html=1;endArrow=none;" edge="1" parent="1" source="ayVskooS4_0W4iJmjJSM-7" target="ayVskooS4_0W4iJmjJSM-11">
          <mxGeometry relative="1" as="geometry">
            <mxPoint x="240" y="350" as="sourcePoint" />
            <mxPoint x="240" y="430" as="targetPoint" />
          </mxGeometry>
        </mxCell>
        <mxCell id="ayVskooS4_0W4iJmjJSM-25" value="" style="edgeStyle=orthogonalEdgeStyle;rounded=0;orthogonalLoop=1;jettySize=auto;html=1;" edge="1" parent="1" source="ayVskooS4_0W4iJmjJSM-13" target="ayVskooS4_0W4iJmjJSM-24">
          <mxGeometry relative="1" as="geometry" />
        </mxCell>
        <mxCell id="ayVskooS4_0W4iJmjJSM-13" value="Too high" style="shape=parallelogram;perimeter=parallelogramPerimeter;whiteSpace=wrap;html=1;fixedSize=1;" vertex="1" parent="1">
          <mxGeometry x="130" y="390" width="120" height="60" as="geometry" />
        </mxCell>
        <mxCell id="ayVskooS4_0W4iJmjJSM-16" value="Yes" style="text;html=1;align=center;verticalAlign=middle;resizable=0;points=[];autosize=1;strokeColor=none;fillColor=none;" vertex="1" parent="1">
          <mxGeometry x="150" y="415" width="40" height="30" as="geometry" />
        </mxCell>
        <mxCell id="ayVskooS4_0W4iJmjJSM-21" value="" style="edgeStyle=orthogonalEdgeStyle;rounded=0;orthogonalLoop=1;jettySize=auto;html=1;" edge="1" parent="1" source="ayVskooS4_0W4iJmjJSM-18" target="ayVskooS4_0W4iJmjJSM-20">
          <mxGeometry relative="1" as="geometry" />
        </mxCell>
        <mxCell id="ayVskooS4_0W4iJmjJSM-23" value="" style="edgeStyle=orthogonalEdgeStyle;rounded=0;orthogonalLoop=1;jettySize=auto;html=1;" edge="1" parent="1" source="ayVskooS4_0W4iJmjJSM-18" target="ayVskooS4_0W4iJmjJSM-22">
          <mxGeometry relative="1" as="geometry" />
        </mxCell>
        <mxCell id="ayVskooS4_0W4iJmjJSM-18" value="Is it number&lt;br&gt;&amp;nbsp; 6" style="rhombus;whiteSpace=wrap;html=1;" vertex="1" parent="1">
          <mxGeometry x="340" y="570" width="80" height="80" as="geometry" />
        </mxCell>
        <mxCell id="ayVskooS4_0W4iJmjJSM-27" value="" style="edgeStyle=orthogonalEdgeStyle;rounded=0;orthogonalLoop=1;jettySize=auto;html=1;" edge="1" parent="1" source="ayVskooS4_0W4iJmjJSM-20" target="ayVskooS4_0W4iJmjJSM-24">
          <mxGeometry relative="1" as="geometry">
            <mxPoint x="130" y="680" as="targetPoint" />
            <Array as="points">
              <mxPoint x="180" y="700" />
            </Array>
          </mxGeometry>
        </mxCell>
        <mxCell id="ayVskooS4_0W4iJmjJSM-20" value="Correct" style="shape=parallelogram;perimeter=parallelogramPerimeter;whiteSpace=wrap;html=1;fixedSize=1;" vertex="1" parent="1">
          <mxGeometry x="180" y="570" width="120" height="60" as="geometry" />
        </mxCell>
        <mxCell id="ayVskooS4_0W4iJmjJSM-29" value="" style="edgeStyle=orthogonalEdgeStyle;rounded=0;orthogonalLoop=1;jettySize=auto;html=1;entryX=0.633;entryY=1.033;entryDx=0;entryDy=0;entryPerimeter=0;" edge="1" parent="1" source="ayVskooS4_0W4iJmjJSM-22" target="ayVskooS4_0W4iJmjJSM-24">
          <mxGeometry relative="1" as="geometry">
            <mxPoint x="170" y="740" as="targetPoint" />
          </mxGeometry>
        </mxCell>
        <mxCell id="ayVskooS4_0W4iJmjJSM-22" value="In correct" style="shape=parallelogram;perimeter=parallelogramPerimeter;whiteSpace=wrap;html=1;fixedSize=1;" vertex="1" parent="1">
          <mxGeometry x="320" y="710" width="120" height="60" as="geometry" />
        </mxCell>
        <mxCell id="ayVskooS4_0W4iJmjJSM-24" value="End" style="whiteSpace=wrap;html=1;" vertex="1" parent="1">
          <mxGeometry y="650" width="120" height="60" as="geometry" />
        </mxCell>
      </root>
    </mxGraphModel>
  </diagram>
</mxfile>
